<?xml version="1.0" standalone="no"?>
<!DOCTYPE svg PUBLIC "-//W3C//DTD SVG 20010904//EN"
 "http://www.w3.org/TR/2001/REC-SVG-20010904/DTD/svg10.dtd">
<svg version="1.0" xmlns="http://www.w3.org/2000/svg"
 width="410.000000pt" height="750.000000pt" viewBox="0 0 410.000000 750.000000"
 preserveAspectRatio="xMidYMid meet">

<g transform="translate(0.000000,750.000000) scale(0.100000,-0.100000)"
fill="#000000" stroke="none">
<path d="M1380 7488 c-3 -3 -63 -8 -135 -11 -122 -6 -235 -27 -310 -57 -119
-49 -165 -72 -237 -117 -37 -24 -72 -43 -77 -43 -6 0 -11 -4 -11 -8 0 -5 -21
-24 -47 -43 -61 -43 -159 -141 -202 -201 -19 -27 -38 -48 -43 -48 -4 0 -8 -5
-8 -10 0 -6 -16 -34 -35 -63 -19 -28 -35 -57 -35 -64 0 -7 -4 -13 -9 -13 -5 0
-12 -13 -16 -30 -4 -16 -10 -30 -15 -30 -4 0 -10 -10 -13 -22 -6 -24 -32 -99
-46 -133 -41 -97 -45 -133 -51 -530 -4 -214 -7 -785 -6 -1268 l2 -878 25 -23
c14 -13 36 -27 50 -31 13 -4 26 -10 29 -14 3 -3 25 -16 50 -29 25 -13 59 -32
75 -42 17 -11 39 -24 50 -30 11 -6 34 -19 50 -30 17 -11 37 -23 45 -27 8 -4
47 -25 85 -47 39 -23 88 -50 110 -61 22 -11 42 -22 45 -26 3 -3 28 -17 55 -31
28 -14 66 -35 85 -47 19 -11 42 -24 50 -28 8 -3 33 -18 55 -32 59 -38 78 -49
95 -57 8 -4 37 -21 63 -37 26 -16 51 -27 54 -23 3 3 1 86 -6 183 -20 310 -35
649 -28 666 6 16 63 17 692 17 l685 0 0 -47 c0 -27 1 -805 2 -1730 2 -925 0
-1684 -4 -1688 -3 -3 -26 0 -50 8 -42 15 -208 96 -218 107 -13 14 -70 50 -80
50 -5 0 -10 4 -10 10 0 5 -12 16 -27 24 -16 8 -45 31 -66 50 -21 20 -40 36
-42 36 -15 0 -175 187 -228 268 -23 34 -45 62 -49 62 -4 0 -8 4 -8 9 0 5 -26
54 -58 108 -62 106 -98 177 -131 263 -12 30 -29 68 -37 83 -8 16 -14 36 -14
46 0 9 -4 21 -9 26 -9 11 -101 297 -126 395 -44 175 -60 210 -92 210 -7 0 -13
4 -13 9 0 5 -13 14 -30 21 -16 7 -30 15 -30 19 0 3 -20 15 -45 26 -25 11 -45
23 -45 27 0 3 -9 10 -21 13 -11 4 -40 20 -64 36 -24 16 -46 29 -49 29 -4 0
-25 12 -49 27 -23 15 -60 37 -82 48 -125 68 -210 118 -213 127 -2 4 -7 8 -12
8 -5 0 -41 19 -82 43 -40 24 -100 59 -133 77 -33 18 -71 41 -84 51 -13 11 -30
19 -37 19 -8 0 -14 3 -14 8 0 4 -22 17 -50 30 -27 12 -52 27 -55 32 -10 16
-52 11 -59 -7 -10 -25 -5 -1830 5 -1958 8 -104 25 -180 56 -252 7 -17 13 -36
13 -41 0 -6 14 -40 30 -75 17 -36 30 -70 30 -76 0 -6 5 -11 10 -11 6 0 10 -6
10 -13 0 -7 16 -36 35 -66 19 -29 35 -57 35 -62 0 -5 4 -9 9 -9 4 0 20 -17 34
-38 32 -48 137 -156 202 -208 28 -21 52 -42 53 -46 2 -5 10 -8 18 -8 8 0 14
-4 14 -9 0 -5 9 -13 20 -16 11 -3 26 -12 32 -18 13 -12 153 -82 193 -97 72
-26 94 -33 130 -40 22 -4 60 -13 85 -21 36 -10 216 -13 935 -14 834 0 895 1
970 19 122 28 209 57 277 92 14 8 33 14 42 14 9 0 16 4 16 9 0 5 10 13 21 16
12 4 56 30 98 58 96 65 301 267 301 297 0 5 4 10 8 10 5 0 14 10 21 22 6 13
25 46 41 73 79 130 131 289 154 465 14 109 16 281 16 1351 l0 1226 -37 36
c-20 20 -42 37 -49 37 -7 0 -19 6 -26 13 -7 6 -33 22 -58 35 -25 13 -58 32
-75 42 -16 11 -39 24 -50 30 -11 5 -27 14 -35 19 -8 5 -44 27 -80 48 -36 21
-67 40 -70 43 -3 3 -23 14 -45 25 -22 11 -58 32 -80 46 -22 15 -67 41 -100 59
-33 18 -71 41 -84 51 -13 11 -30 19 -37 19 -8 0 -14 4 -14 8 0 4 -12 13 -27
19 -16 7 -50 25 -78 42 -27 16 -66 38 -85 48 -88 47 -156 87 -171 99 -8 8 -21
14 -27 14 -6 0 -17 6 -24 13 -7 6 -32 21 -55 32 -24 11 -43 23 -43 26 0 4 -13
12 -30 19 -16 7 -30 16 -30 20 0 4 -15 10 -32 14 -50 10 -58 -9 -58 -136 l0
-108 -480 0 -480 0 0 60 c0 47 3 60 15 60 8 0 15 4 15 8 0 4 24 20 53 35 76
41 135 75 194 114 46 30 53 39 58 76 3 23 5 474 3 1002 -3 834 -1 965 12 1000
18 47 92 123 129 132 14 3 32 11 40 17 21 16 226 14 281 -3 57 -19 112 -61
142 -109 l23 -37 0 -645 c0 -682 0 -678 45 -694 8 -3 29 -15 45 -26 17 -11 41
-25 55 -30 13 -6 27 -14 30 -18 3 -4 16 -13 30 -19 14 -7 48 -26 75 -43 28
-16 62 -35 78 -41 15 -6 27 -15 27 -20 0 -5 4 -9 9 -9 5 0 55 -27 111 -60 56
-33 103 -60 105 -60 2 0 49 -27 105 -60 56 -33 104 -60 107 -60 3 0 25 -13 50
-30 24 -16 48 -30 53 -30 5 0 15 -6 22 -12 7 -7 31 -22 53 -33 22 -10 59 -32
83 -47 24 -15 47 -28 52 -28 5 0 15 -6 22 -12 7 -7 33 -23 58 -36 25 -13 59
-32 75 -42 17 -11 41 -25 55 -30 13 -6 27 -14 30 -18 7 -10 95 -52 109 -52 8
0 11 231 11 894 0 749 -3 914 -15 1013 -17 126 -39 229 -60 278 -24 57 -86
180 -105 210 -11 17 -25 40 -31 53 -7 12 -16 22 -21 22 -4 0 -8 4 -8 9 0 26
-234 261 -260 261 -5 0 -10 4 -10 9 0 17 -276 171 -308 171 -8 0 -26 6 -40 14
-33 17 -109 36 -182 47 -61 8 -1572 25 -1580 17z"/>
<path d="M2127 6481 c-23 -39 -21 -63 6 -94 17 -20 32 -27 58 -27 47 0 69 25
69 77 0 51 -23 73 -76 73 -33 0 -43 -5 -57 -29z"/>
</g>
</svg>
